{"glyphs":{"0":{"ha":460,"o":"m 230 -9 l 230 -9 q 128 40 172 -9 q 60 173 84 89 q 36 361 36 257 l 36 361 q 60 549 36 465 q 128 681 84 632 q 230 730 172 730 l 230 730 q 332 681 288 730 q 400 549 375 632 q 424 361 424 465 l 424 361 q 400 173 424 257 q 332 40 375 89 q 230 -9 288 -9 m 230 18 l 230 18 q 323 103 293 18 q 352 361 352 188 l 352 361 q 323 619 352 534 q 230 703 293 703 l 230 703 q 138 619 167 703 q 108 361 108 534 l 108 361 q 138 103 108 188 q 230 18 167 18"},"1":{"ha":249,"o":"m 224 0 l 20 0 q 5 11 5 0 l 5 11 q 18 23 5 22 l 18 23 l 57 27 q 86 37 78 29 q 93 66 93 45 l 93 66 l 93 660 q 84 683 93 677 q 59 686 74 688 l 59 686 l 23 682 q 5 695 5 681 l 5 695 q 21 709 5 706 l 21 709 q 99 727 74 718 q 136 735 124 735 l 136 735 q 157 713 157 735 l 157 713 l 157 66 q 165 37 157 45 q 193 27 172 29 l 193 27 l 226 23 q 239 11 239 22 l 239 11 q 224 0 239 0 l 224 0"},"2":{"ha":404,"o":"m 341 0 l 38 0 q 20 13 20 0 l 20 13 q 27 31 20 20 l 27 31 l 147 214 q 256 411 222 328 q 289 562 289 493 l 289 562 q 264 657 289 624 q 190 690 238 690 l 190 690 q 103 657 142 690 q 53 550 64 623 l 53 550 q 38 534 50 534 l 38 534 q 25 554 23 534 l 25 554 q 60 659 32 620 q 126 714 87 697 q 205 730 165 730 l 205 730 q 318 689 274 730 q 361 573 361 647 l 361 573 q 337 467 361 521 q 270 348 312 412 q 172 200 227 283 l 172 200 l 94 82 q 94 67 88 73 q 109 60 99 60 l 109 60 l 216 60 q 279 69 254 60 q 319 101 304 77 q 342 168 334 124 l 342 168 l 351 215 q 366 228 354 228 l 366 228 q 378 211 380 228 l 378 211 l 366 23 q 341 0 364 0 l 341 0"},"3":{"ha":371,"o":"m 135 -9 l 135 -9 q 52 10 83 -9 q 20 60 20 29 l 20 60 q 30 87 20 77 q 56 96 40 96 l 56 96 q 81 84 75 96 q 90 57 87 72 q 104 30 93 42 q 141 18 114 18 l 141 18 q 234 72 198 18 q 269 212 269 125 l 269 212 q 159 405 269 405 l 159 405 q 91 386 119 405 l 91 386 q 67 383 75 374 l 67 383 q 75 407 61 393 l 75 407 l 147 475 q 211 550 191 516 q 231 618 231 584 l 231 618 q 215 676 231 655 q 169 696 198 696 l 169 696 q 105 668 131 696 q 71 591 79 640 l 71 591 q 56 576 69 576 l 56 576 q 44 594 42 576 l 44 594 q 91 693 51 656 q 188 730 130 730 l 188 730 q 269 703 238 730 q 299 629 299 675 l 299 629 q 170 461 299 550 l 170 461 l 147 445 q 145 439 143 442 q 151 436 146 435 l 151 436 q 185 441 168 441 l 185 441 q 266 415 231 441 q 321 343 301 389 q 341 236 341 296 l 341 236 q 324 144 341 188 q 278 66 307 100 q 212 11 249 31 q 135 -9 175 -9"},"4":{"ha":393,"o":"m 364 0 l 170 0 q 155 11 155 0 l 155 11 q 168 23 155 22 l 168 23 l 211 29 q 239 40 232 32 q 245 66 245 47 l 245 66 l 245 196 q 231 210 245 210 l 231 210 l 29 210 q 10 227 10 210 l 10 227 q 13 238 10 232 q 19 252 15 243 l 19 252 l 259 710 q 275 720 263 720 l 275 720 l 295 720 q 304 703 313 720 l 304 703 l 64 280 q 72 266 57 266 l 72 266 l 231 266 q 245 280 245 266 l 245 280 l 245 476 q 255 492 245 485 l 255 492 l 292 513 q 304 515 299 517 q 309 504 309 512 l 309 504 l 309 280 q 323 266 309 266 l 323 266 l 367 266 q 379 254 379 266 l 379 254 l 379 222 q 367 210 379 210 l 367 210 l 323 210 q 309 196 309 210 l 309 196 l 309 66 q 316 38 309 45 q 343 27 322 31 l 343 27 l 366 23 q 379 11 379 20 l 379 11 q 364 0 379 0 l 364 0"},"5":{"ha":382,"o":"m 132 -9 l 132 -9 q 77 -1 105 -9 q 29 23 48 7 q 10 62 10 39 l 10 62 q 19 87 10 77 q 43 96 28 96 l 43 96 q 68 84 60 96 q 81 57 75 72 q 101 30 87 42 q 143 18 114 18 l 143 18 q 206 37 175 18 q 257 97 236 55 q 277 208 277 139 l 277 208 q 232 355 277 303 q 79 415 187 406 l 79 415 q 67 431 64 417 l 67 431 l 120 707 q 135 720 123 720 l 135 720 l 292 720 q 317 727 309 720 q 329 739 324 733 q 342 745 334 745 l 342 745 q 352 739 350 745 q 351 724 353 732 l 351 724 l 336 672 q 321 660 333 660 l 321 660 l 156 660 q 141 647 144 660 l 141 647 l 112 494 q 124 479 109 480 l 124 479 q 253 435 203 470 q 326 346 302 399 q 349 229 349 292 l 349 229 q 317 101 349 154 q 235 19 284 47 q 132 -9 185 -9"},"6":{"ha":404,"o":"m 206 -9 l 206 -9 q 118 25 156 -9 q 58 120 79 59 q 36 261 36 181 l 36 261 q 60 421 36 343 q 125 562 83 498 q 223 670 167 626 q 342 729 278 714 l 342 729 q 357 727 352 731 q 361 717 361 723 l 361 717 q 350 704 361 707 l 350 704 q 208 611 262 675 q 128 442 154 546 l 128 442 q 130 433 126 435 q 139 434 133 430 l 139 434 q 212 456 170 456 l 212 456 q 296 427 259 456 q 355 346 333 397 q 376 229 376 295 l 376 229 q 353 110 376 164 q 292 23 330 55 q 206 -9 253 -9 m 204 18 l 204 18 q 280 69 255 18 q 304 224 304 119 l 304 224 q 281 381 304 331 q 208 431 258 431 l 208 431 q 102 218 102 431 l 102 218 q 204 18 102 18"},"7":{"ha":364,"o":"m 124 0 l 99 0 q 88 15 83 0 l 88 15 l 311 644 q 300 660 316 660 l 300 660 l 78 660 q 54 654 62 660 q 41 642 46 648 q 28 635 36 635 l 28 635 q 19 642 20 635 q 19 656 17 648 l 19 656 l 34 708 q 49 720 37 720 l 49 720 l 346 720 q 360 708 360 720 l 360 708 q 352 675 360 700 l 352 675 l 138 11 q 124 0 135 0 l 124 0"},"8":{"ha":433,"o":"m 215 -9 l 215 -9 q 115 18 157 -9 q 51 86 73 44 q 28 172 28 127 l 28 172 q 63 283 28 234 q 162 365 98 331 l 162 365 q 168 373 168 368 q 163 381 168 377 l 163 381 q 80 468 107 419 q 53 564 53 516 l 53 564 q 78 651 53 614 q 142 709 102 688 q 229 730 182 730 l 229 730 q 310 710 274 730 q 367 654 346 689 q 388 573 388 618 l 388 573 q 356 477 388 521 q 271 403 324 432 l 271 403 q 265 396 265 400 q 271 387 265 391 l 271 387 q 375 293 344 341 q 405 186 405 244 l 405 186 q 380 86 405 130 q 312 17 355 42 q 215 -9 269 -9 m 226 415 l 226 415 q 252 416 239 406 l 252 416 q 310 485 290 443 q 329 576 329 527 l 329 576 q 304 669 329 634 q 227 703 278 703 l 227 703 q 144 672 175 703 q 112 590 112 641 l 112 590 q 121 531 112 560 q 154 474 129 502 q 226 415 179 445 m 217 18 l 217 18 q 312 54 277 18 q 346 151 346 90 l 346 151 q 328 239 346 202 q 278 303 309 275 q 207 353 247 330 l 207 353 q 181 353 194 362 l 181 353 q 89 169 89 290 l 89 169 q 101 96 89 131 q 141 40 113 61 q 217 18 169 18"},"9":{"ha":402,"o":"m 90 -8 l 90 -8 q 76 -6 80 -10 q 71 4 71 -2 l 71 4 q 82 18 71 13 l 82 18 q 209 116 159 47 q 278 302 259 184 l 278 302 q 276 312 280 310 q 266 309 272 314 l 266 309 q 190 285 235 285 l 190 285 q 106 314 143 285 q 48 393 69 343 q 26 502 26 442 l 26 502 q 49 615 26 563 q 111 698 72 666 q 196 730 149 730 l 196 730 q 285 696 247 730 q 345 602 323 662 q 366 460 366 541 l 366 460 q 329 238 366 336 q 229 76 291 139 q 90 -8 166 13 m 98 507 l 98 507 q 191 310 98 310 l 191 310 q 268 363 242 310 q 294 513 294 416 l 294 513 q 270 655 294 606 q 195 703 245 703 l 195 703 q 98 507 98 703"},"!":{"ha":237,"o":"m 117 179 l 117 179 q 105 195 105 179 l 105 195 q 101 309 104 248 q 92 430 97 369 q 83 545 87 491 q 75 639 78 599 q 71 694 71 678 l 71 694 q 83 735 71 719 q 117 750 95 750 l 117 750 q 151 735 139 750 q 163 694 163 719 l 163 694 q 160 638 163 677 q 152 545 156 599 q 142 430 147 491 q 134 309 137 369 q 129 195 130 248 l 129 195 q 117 179 129 179 m 117 -9 l 117 -9 q 80 6 95 -9 q 64 44 64 20 l 64 44 q 80 82 64 67 q 117 96 95 96 l 117 96 q 153 82 137 96 q 169 44 169 67 l 169 44 q 153 6 169 20 q 117 -9 137 -9"},"\"":{"ha":371,"o":"m 116 489 l 116 489 q 104 506 104 489 l 104 506 q 95 584 103 552 q 80 639 87 616 q 72 681 72 662 l 72 681 q 83 717 72 702 q 116 731 94 731 l 116 731 q 150 717 139 731 q 161 681 161 702 l 161 681 q 154 639 161 662 q 138 584 146 616 q 128 506 130 552 l 128 506 q 116 489 128 489 m 255 489 l 255 489 q 243 506 243 489 l 243 506 q 234 584 242 552 q 219 639 226 616 q 211 681 211 662 l 211 681 q 222 717 211 702 q 255 731 233 731 l 255 731 q 289 717 278 731 q 300 681 300 702 l 300 681 q 293 639 300 662 q 277 584 285 616 q 267 506 269 552 l 267 506 q 255 489 267 489"},"#":{"ha":635,"o":"m 138 0 l 106 0 l 155 213 q 142 230 158 230 l 142 230 l 20 230 l 20 260 l 148 260 q 170 278 165 260 l 170 278 l 208 443 q 195 460 211 460 l 195 460 l 73 460 l 73 490 l 201 490 q 223 507 218 490 l 223 507 l 272 720 l 304 720 l 255 507 q 268 490 252 490 l 268 490 l 426 490 q 448 507 443 490 l 448 507 l 497 720 l 529 720 l 480 507 q 493 490 477 490 l 493 490 l 615 490 l 615 460 l 487 460 q 465 442 470 460 l 465 442 l 427 277 q 440 260 424 260 l 440 260 l 562 260 l 562 230 l 434 230 q 412 213 417 230 l 412 213 l 363 0 l 331 0 l 380 213 q 367 230 383 230 l 367 230 l 209 230 q 187 213 192 230 l 187 213 l 138 0 m 215 260 l 215 260 l 373 260 q 395 278 390 260 l 395 278 l 433 443 q 420 460 436 460 l 420 460 l 262 460 q 240 442 245 460 l 240 442 l 202 277 q 215 260 199 260"},"$":{"ha":417,"o":"m 184 -9 l 184 -9 q 140 -5 164 -9 q 94 5 115 -1 q 60 18 72 11 l 60 18 q 50 27 53 22 q 46 42 46 31 l 46 42 l 41 199 q 54 219 41 219 l 54 219 q 69 201 65 219 l 69 201 l 78 163 q 202 20 112 20 l 202 20 l 202 347 q 186 359 194 353 l 186 359 q 78 462 112 412 q 44 567 44 511 l 44 567 q 88 679 44 635 q 202 729 132 722 l 202 729 l 202 822 q 210 830 202 830 l 210 830 l 218 830 q 226 822 226 830 l 226 822 l 226 730 l 227 730 q 285 723 257 730 q 331 703 313 716 l 331 703 q 341 694 337 699 q 344 681 344 689 l 344 681 l 347 530 q 334 513 347 513 l 334 513 q 321 527 325 513 l 321 527 l 314 552 q 277 653 296 617 q 226 697 257 688 l 226 697 l 226 422 q 233 416 229 419 l 233 416 q 343 299 308 355 q 377 178 377 242 l 377 178 q 335 56 377 105 q 226 -5 293 7 l 226 -5 l 226 -101 q 218 -109 226 -109 l 218 -109 l 210 -109 q 202 -101 202 -109 l 202 -101 l 202 -8 q 184 -9 193 -9 m 107 593 l 107 593 q 128 521 107 555 q 202 441 149 486 l 202 441 l 202 700 l 201 700 q 133 672 158 700 q 107 593 107 644 m 314 148 l 314 148 q 293 241 314 197 q 226 326 272 284 l 226 326 l 226 22 q 291 61 267 28 q 314 148 314 94"},"%":{"ha":590,"o":"m 154 381 l 154 381 q 89 405 117 381 q 46 468 61 428 q 30 556 30 507 l 30 556 q 46 645 30 605 q 89 707 61 684 q 154 730 117 730 l 154 730 q 219 707 191 730 q 262 645 246 684 q 278 556 278 605 l 278 556 q 262 468 278 507 q 219 405 246 428 q 154 381 191 381 m 88 0 l 77 0 q 69 14 61 0 l 69 14 l 488 712 q 502 720 492 720 l 502 720 l 513 720 q 521 706 529 720 l 521 706 l 102 8 q 88 0 98 0 l 88 0 m 154 401 l 154 401 q 204 436 185 401 q 223 556 223 470 l 223 556 q 204 676 223 642 q 154 710 185 710 l 154 710 q 104 676 123 710 q 85 556 85 642 l 85 556 q 104 436 85 470 q 154 401 123 401 m 436 -10 l 436 -10 q 371 14 399 -10 q 328 77 343 37 q 312 165 312 116 l 312 165 q 328 254 312 214 q 371 316 343 293 q 436 339 399 339 l 436 339 q 501 316 473 339 q 544 254 528 293 q 560 165 560 214 l 560 165 q 544 77 560 116 q 501 14 528 37 q 436 -10 473 -10 m 436 10 l 436 10 q 486 45 467 10 q 505 165 505 79 l 505 165 q 486 285 505 251 q 436 319 467 319 l 436 319 q 386 285 405 319 q 367 165 367 251 l 367 165 q 386 45 367 79 q 436 10 405 10"},"&":{"ha":579,"o":"m 206 -9 l 206 -9 q 112 16 151 -9 q 53 81 73 40 q 32 168 32 121 l 32 168 q 73 305 32 243 q 179 407 113 366 l 179 407 q 183 426 190 414 l 183 426 q 139 511 154 474 q 124 586 124 547 l 124 586 q 144 660 124 627 q 199 713 163 693 q 282 733 235 733 l 282 733 q 353 714 324 733 q 397 667 382 695 q 412 609 412 638 l 412 609 q 380 516 412 558 q 277 437 348 474 l 277 437 q 272 418 265 429 l 272 418 l 399 214 q 409 208 404 207 q 418 215 414 208 l 418 215 q 440 263 429 238 q 456 302 450 287 l 456 302 q 463 345 467 331 q 439 361 459 358 l 439 361 l 404 366 q 391 378 391 367 l 391 378 q 405 388 391 388 l 405 388 l 580 388 q 594 377 594 388 l 594 377 q 581 365 594 366 l 581 365 l 562 363 q 521 347 540 361 q 485 295 501 333 l 485 295 q 463 243 476 273 q 436 185 450 213 l 436 185 q 437 152 428 168 l 437 152 l 495 59 q 513 36 505 44 q 532 27 520 28 l 532 27 l 576 23 q 588 11 588 22 l 588 11 q 574 0 588 0 l 574 0 l 472 0 q 443 16 453 0 l 443 16 l 397 88 q 378 89 388 102 l 378 89 q 294 14 337 36 q 206 -9 250 -9 m 262 458 l 262 458 q 331 526 308 486 q 353 605 353 566 l 353 605 q 347 652 353 629 q 324 691 340 675 q 277 706 308 706 l 277 706 q 212 675 236 706 q 187 607 187 644 l 187 607 q 199 544 187 574 q 243 463 211 514 l 243 463 q 262 458 249 450 m 219 38 l 219 38 q 289 55 254 38 q 358 114 324 72 l 358 114 q 359 148 369 131 l 359 148 l 212 380 q 192 384 203 392 l 192 384 q 121 300 144 350 q 98 188 98 250 l 98 188 q 128 82 98 126 q 219 38 157 38"},"'":{"ha":233,"o":"m 116 489 l 116 489 q 104 506 104 489 l 104 506 q 95 584 103 552 q 80 639 87 616 q 72 681 72 662 l 72 681 q 83 717 72 702 q 116 731 94 731 l 116 731 q 150 717 139 731 q 161 681 161 702 l 161 681 q 154 639 161 662 q 138 584 146 616 q 128 506 130 552 l 128 506 q 116 489 128 489"},"(":{"ha":340,"o":"m 293 -108 l 293 -108 q 284 -105 289 -108 l 284 -105 q 212 -39 249 -80 q 142 56 174 1 q 90 177 110 110 q 70 322 70 244 l 70 322 q 90 467 70 400 q 142 589 110 534 q 212 684 174 643 q 284 749 249 724 l 284 749 q 293 752 289 752 l 293 752 q 302 744 302 752 l 302 744 q 296 733 302 739 l 296 733 q 176 552 214 659 q 138 322 138 444 l 138 322 q 176 93 138 200 q 296 -89 214 -15 l 296 -89 q 302 -100 302 -95 l 302 -100 q 293 -108 302 -108"},")":{"ha":340,"o":"m 47 -108 l 47 -108 q 38 -100 38 -108 l 38 -100 q 44 -89 38 -95 l 44 -89 q 165 93 127 -15 q 202 322 202 200 l 202 322 q 165 552 202 444 q 44 733 127 659 l 44 733 q 38 744 38 739 l 38 744 q 47 752 38 752 l 47 752 q 56 749 52 752 l 56 749 q 129 684 91 724 q 198 589 166 643 q 250 467 230 534 q 270 322 270 400 l 270 322 q 250 177 270 244 q 198 56 230 110 q 129 -39 166 1 q 56 -105 91 -80 l 56 -105 q 47 -108 52 -108"},"*":{"ha":444,"o":"m 222 416 l 222 416 q 193 428 203 416 q 183 455 183 440 l 183 455 q 190 485 183 471 q 204 516 196 498 q 214 558 211 533 l 214 558 q 212 566 215 564 q 203 563 208 567 l 203 563 q 162 517 173 538 q 130 485 150 496 l 130 485 q 102 481 117 478 q 77 499 87 483 l 77 499 q 73 531 68 516 q 91 553 78 546 l 91 553 q 121 562 105 561 q 155 565 136 563 q 196 577 173 567 l 196 577 q 202 583 202 579 q 196 589 202 587 l 196 589 q 155 602 173 600 q 121 604 136 603 q 91 613 105 605 l 91 613 q 73 636 78 621 q 77 667 68 651 l 77 667 q 102 686 87 683 q 130 681 117 689 l 130 681 q 153 661 144 673 q 173 633 162 648 q 204 602 184 618 l 204 602 q 212 600 209 598 q 214 608 215 602 l 214 608 q 204 651 211 634 q 190 682 196 668 q 183 711 183 696 l 183 711 q 193 738 183 726 q 222 750 203 750 l 222 750 q 251 738 241 750 q 261 711 261 726 l 261 711 q 255 682 261 696 q 241 651 248 668 q 230 608 233 634 l 230 608 q 233 600 229 602 q 240 602 236 598 l 240 602 q 272 633 261 618 q 291 661 282 648 q 314 681 300 673 l 314 681 q 342 686 327 689 q 367 667 357 683 l 367 667 q 371 636 376 651 q 353 613 366 621 l 353 613 q 324 604 339 605 q 290 602 308 603 q 248 589 271 600 l 248 589 q 242 583 242 587 q 248 577 242 579 l 248 577 q 290 565 271 567 q 324 562 308 563 q 353 553 339 561 l 353 553 q 371 531 366 546 q 367 499 376 516 l 367 499 q 342 481 357 483 q 314 485 327 478 l 314 485 q 283 517 295 496 q 241 563 271 538 l 241 563 q 233 566 237 567 q 230 558 229 564 l 230 558 q 241 516 233 533 q 255 485 248 498 q 261 455 261 471 l 261 455 q 251 428 261 440 q 222 416 241 416"},"+":{"ha":531,"o":"m 274 153 l 258 153 q 248 163 248 153 l 248 163 l 248 354 l 70 354 q 60 364 60 354 l 60 364 l 60 378 q 70 388 60 388 l 70 388 l 248 388 l 248 580 q 258 590 248 590 l 258 590 l 274 590 q 284 580 284 590 l 284 580 l 284 388 l 461 388 q 471 378 471 388 l 471 378 l 471 364 q 461 354 471 354 l 461 354 l 284 354 l 284 163 q 274 153 284 153 l 274 153"},",":{"ha":217,"o":"m 76 -156 l 76 -156 q 57 -160 65 -167 l 57 -160 q 60 -141 48 -153 l 60 -141 q 101 -87 89 -112 q 113 -35 113 -62 l 113 -35 q 105 -10 113 -19 q 87 5 97 -2 q 69 22 77 12 q 61 49 61 31 l 61 49 q 75 83 61 69 q 109 96 88 96 l 109 96 q 149 78 134 96 q 163 29 163 60 l 163 29 q 139 -73 163 -24 q 76 -156 114 -123"},"-":{"ha":430,"o":"m 338 259 l 92 259 q 82 269 82 259 l 82 269 l 82 283 q 92 293 82 293 l 92 293 l 338 293 q 348 283 348 293 l 348 283 l 348 269 q 338 259 348 259 l 338 259"},".":{"ha":213,"o":"m 107 -9 l 107 -9 q 70 6 85 -9 q 54 44 54 20 l 54 44 q 70 82 54 67 q 107 96 85 96 l 107 96 q 143 82 127 96 q 159 44 159 67 l 159 44 q 143 6 159 20 q 107 -9 127 -9"},"/":{"ha":258,"o":"m 30 -130 l 18 -130 q 10 -119 8 -130 l 10 -119 l 217 781 q 228 790 219 790 l 228 790 l 240 790 q 248 779 250 790 l 248 779 l 41 -121 q 30 -130 39 -130 l 30 -130"},":":{"ha":213,"o":"m 107 -9 l 107 -9 q 70 6 85 -9 q 54 44 54 20 l 54 44 q 70 82 54 67 q 107 96 85 96 l 107 96 q 143 82 127 96 q 159 44 159 67 l 159 44 q 143 6 159 20 q 107 -9 127 -9 m 107 371 l 107 371 q 70 386 85 371 q 54 424 54 400 l 54 424 q 70 462 54 447 q 107 476 85 476 l 107 476 q 143 462 127 476 q 159 424 159 447 l 159 424 q 143 386 159 400 q 107 371 127 371"},";":{"ha":217,"o":"m 76 -156 l 76 -156 q 57 -160 65 -167 l 57 -160 q 60 -141 48 -153 l 60 -141 q 101 -87 89 -112 q 113 -35 113 -62 l 113 -35 q 105 -10 113 -19 q 87 5 97 -2 q 69 22 77 12 q 61 49 61 31 l 61 49 q 75 83 61 69 q 109 96 88 96 l 109 96 q 149 78 134 96 q 163 29 163 60 l 163 29 q 139 -73 163 -24 q 76 -156 114 -123 m 109 371 l 109 371 q 72 386 87 371 q 56 424 56 400 l 56 424 q 72 462 56 447 q 109 476 87 476 l 109 476 q 145 462 129 476 q 161 424 161 447 l 161 424 q 145 386 161 400 q 109 371 129 371"},"<":{"ha":531,"o":"m 70 387 l 457 533 q 467 532 463 535 q 471 523 471 529 l 471 523 l 471 511 q 461 498 471 501 l 461 498 l 107 366 l 461 234 q 471 221 471 231 l 471 221 l 471 209 q 467 200 471 203 q 457 199 463 197 l 457 199 l 70 345 q 60 359 60 349 l 60 359 l 60 373 q 70 387 60 383 l 70 387"},"=":{"ha":531,"o":"m 461 454 l 70 454 q 60 464 60 454 l 60 464 l 60 478 q 70 488 60 488 l 70 488 l 461 488 q 471 478 471 488 l 471 478 l 471 464 q 461 454 471 454 l 461 454 m 461 254 l 70 254 q 60 264 60 254 l 60 264 l 60 278 q 70 288 60 288 l 70 288 l 461 288 q 471 278 471 288 l 471 278 l 471 264 q 461 254 471 254 l 461 254"},">":{"ha":531,"o":"m 461 345 l 74 199 q 64 200 68 197 q 60 209 60 203 l 60 209 l 60 221 q 70 234 60 231 l 70 234 l 424 366 l 70 498 q 60 511 60 501 l 60 511 l 60 523 q 64 532 60 529 q 74 533 68 535 l 74 533 l 461 387 q 471 373 471 383 l 471 373 l 471 359 q 461 345 471 349 l 461 345"},"?":{"ha":317,"o":"m 124 179 l 124 179 q 112 195 112 179 l 112 195 l 108 372 q 114 428 107 407 q 138 467 120 449 l 138 467 l 162 491 q 211 552 194 523 q 228 630 228 580 l 228 630 q 210 700 228 680 q 167 720 192 720 l 167 720 q 100 686 124 720 q 52 577 75 651 l 52 577 q 39 563 48 563 l 39 563 q 28 580 28 563 l 28 580 l 31 701 q 34 714 31 709 q 42 723 37 719 l 42 723 q 87 743 58 736 q 138 750 116 750 l 138 750 q 246 714 207 750 q 285 611 285 677 l 285 611 q 264 516 285 554 q 199 436 242 477 l 199 436 l 160 400 q 146 379 150 390 q 141 341 142 367 l 141 341 l 137 195 q 124 179 137 179 m 123 -9 l 123 -9 q 86 6 101 -9 q 70 44 70 20 l 70 44 q 86 82 70 67 q 123 96 101 96 l 123 96 q 159 82 143 96 q 175 44 175 67 l 175 44 q 159 6 175 20 q 123 -9 143 -9"},"@":{"ha":660,"o":"m 348 -81 l 348 -81 q 181 -42 250 -81 q 76 64 112 -4 q 40 218 40 132 l 40 218 q 68 356 40 290 q 143 472 95 421 q 253 551 191 522 q 384 580 315 580 l 384 580 q 508 548 455 580 q 591 456 561 515 q 620 319 620 397 l 620 319 q 606 223 620 269 q 566 141 591 177 q 509 84 541 105 q 442 63 477 63 l 442 63 q 388 94 403 63 q 386 178 373 125 l 386 178 q 388 184 387 181 q 389 190 388 187 l 389 190 q 388 196 391 195 q 382 192 384 197 l 382 192 q 250 63 311 63 l 250 63 q 196 151 196 63 l 196 151 q 214 252 196 201 q 260 345 231 303 q 324 413 289 387 q 393 438 359 438 l 393 438 q 439 416 425 438 l 439 416 q 448 409 443 409 l 448 409 q 456 416 453 409 l 456 416 q 474 433 462 433 l 474 433 q 484 413 489 433 l 484 413 l 429 177 q 452 94 409 94 l 452 94 q 515 127 485 94 q 563 212 544 160 q 581 322 581 264 l 581 322 q 527 491 581 429 q 380 553 473 553 l 380 553 q 238 510 300 553 q 141 391 176 467 q 106 215 106 315 l 106 215 q 168 17 106 85 q 346 -52 229 -52 l 346 -52 q 507 -6 444 -52 l 507 -6 q 532 -4 524 8 l 532 -4 q 527 -26 540 -16 l 527 -26 q 348 -81 457 -81 m 268 100 l 268 100 q 303 119 283 100 q 343 169 323 138 q 381 235 363 199 q 409 307 398 271 q 419 369 419 342 l 419 369 q 389 411 419 411 l 389 411 q 342 386 366 411 q 296 321 317 361 q 261 233 274 280 q 248 143 248 186 l 248 143 q 253 110 248 120 q 268 100 258 100"},"A":{"ha":457,"o":"m 137 0 l -3 0 q -18 10 -18 0 l -18 10 q -4 23 -18 20 l -4 23 l 11 26 q 41 46 31 30 q 58 89 51 61 l 58 89 l 213 714 q 220 727 215 724 q 228 730 224 730 l 228 730 q 238 727 233 730 q 244 714 242 724 l 244 714 l 402 80 q 418 41 409 52 q 446 26 427 30 l 446 26 l 461 23 q 475 10 475 20 l 475 10 q 460 0 475 0 l 460 0 l 289 0 q 275 11 275 0 l 275 11 q 292 23 275 22 l 292 23 l 311 25 q 333 36 328 27 q 332 67 337 45 l 332 67 l 294 222 q 261 248 288 248 l 261 248 l 156 248 q 123 222 130 248 l 123 222 l 89 88 q 119 25 74 31 l 119 25 l 134 23 q 151 11 151 20 l 151 11 q 137 0 151 0 l 137 0 m 153 278 l 153 278 l 263 278 q 276 295 279 278 l 276 295 l 212 563 l 207 563 l 140 295 q 153 278 137 278"},"B":{"ha":478,"o":"m 241 0 l 34 0 q 19 11 19 0 l 19 11 q 32 23 19 20 l 32 23 l 55 27 q 83 38 76 31 q 89 66 89 45 l 89 66 l 89 654 q 83 682 89 675 q 55 693 76 689 l 55 693 l 32 697 q 19 709 19 700 l 19 709 q 34 720 19 720 l 34 720 l 237 720 q 326 699 287 720 q 388 642 365 678 q 410 560 410 606 l 410 560 q 384 477 410 515 q 307 412 357 438 l 307 412 q 301 404 301 409 q 308 397 301 399 l 308 397 q 413 324 376 374 q 450 204 450 273 l 450 204 q 423 99 450 145 q 349 26 396 52 q 241 0 301 0 l 241 0 m 213 411 l 213 411 q 302 453 266 411 q 337 556 337 494 l 337 556 q 303 657 337 618 q 213 695 269 695 l 213 695 q 160 655 160 695 l 160 655 l 160 466 q 173 424 160 437 q 213 411 185 411 m 228 25 l 228 25 q 334 75 293 25 q 375 207 375 124 l 375 207 q 334 338 375 290 q 222 386 292 386 l 222 386 q 160 337 160 386 l 160 337 l 160 94 q 228 25 160 25"},"C":{"ha":480,"o":"m 286 -9 l 286 -9 q 157 37 212 -9 q 71 167 101 83 q 40 364 40 250 l 40 364 q 74 557 40 474 q 164 685 107 639 q 289 730 220 730 l 289 730 q 361 723 330 730 q 416 703 392 715 l 416 703 q 428 682 428 696 l 428 682 l 431 530 q 419 513 431 513 l 419 513 q 405 526 408 513 l 405 526 l 395 563 q 347 671 374 641 q 281 701 319 701 l 281 701 q 165 615 211 701 q 118 364 118 528 l 118 364 q 142 175 118 252 q 203 59 165 98 q 282 20 240 20 l 282 20 q 355 48 327 20 q 401 156 382 76 l 401 156 l 413 205 q 429 218 416 220 l 429 218 q 440 201 440 216 l 440 201 l 436 39 q 423 18 436 25 l 423 18 q 367 -1 399 6 q 286 -9 334 -9"},"D":{"ha":530,"o":"m 226 0 l 34 0 q 19 11 19 0 l 19 11 q 32 23 19 20 l 32 23 l 55 27 q 89 66 89 33 l 89 66 l 89 654 q 83 682 89 675 q 55 693 76 689 l 55 693 l 32 697 q 19 709 19 700 l 19 709 q 34 720 19 720 l 34 720 l 236 720 q 371 675 314 720 q 459 547 428 629 q 490 357 490 465 l 490 357 q 458 168 490 248 q 366 44 425 88 q 226 0 307 0 l 226 0 m 230 26 l 230 26 q 366 111 319 26 q 412 357 412 196 l 412 357 q 368 606 412 517 q 236 694 323 694 l 236 694 q 160 621 160 694 l 160 621 l 160 99 q 177 43 160 59 q 230 26 193 26"},"E":{"ha":453,"o":"m 385 0 l 34 0 q 19 11 19 0 l 19 11 q 32 23 19 20 l 32 23 l 55 27 q 83 38 76 31 q 89 66 89 45 l 89 66 l 89 654 q 83 682 89 675 q 55 693 76 689 l 55 693 l 32 697 q 19 709 19 700 l 19 709 q 34 720 19 720 l 34 720 l 370 720 q 395 697 393 720 l 395 697 l 403 531 q 390 514 405 514 l 390 514 q 376 527 378 514 l 376 527 l 370 564 q 325 664 359 632 q 231 695 291 695 l 231 695 q 176 684 191 695 q 160 643 160 672 l 160 643 l 160 402 q 174 388 160 388 l 174 388 l 224 388 q 278 435 268 388 l 278 435 l 288 485 q 305 498 292 500 l 305 498 q 316 481 316 496 l 316 481 l 316 256 q 305 239 316 241 l 305 239 q 288 252 292 237 l 288 252 l 278 301 q 259 347 271 336 q 223 358 246 358 l 223 358 l 174 358 q 160 344 160 358 l 160 344 l 160 93 q 179 41 160 57 q 246 25 197 25 l 246 25 q 332 51 296 25 q 381 146 367 76 l 381 146 l 393 205 q 408 218 396 218 l 408 218 q 420 201 422 218 l 420 201 l 410 23 q 385 0 408 0 l 385 0"},"F":{"ha":408,"o":"m 237 0 l 34 0 q 19 11 19 0 l 19 11 q 32 23 19 20 l 32 23 l 55 27 q 83 38 76 31 q 89 66 89 45 l 89 66 l 89 654 q 83 682 89 675 q 55 693 76 689 l 55 693 l 32 697 q 19 709 19 700 l 19 709 q 34 720 19 720 l 34 720 l 356 720 q 381 697 379 720 l 381 697 l 389 531 q 376 514 391 514 l 376 514 q 362 527 364 514 l 362 527 l 357 560 q 329 641 349 612 q 284 683 309 670 q 236 695 259 695 l 236 695 q 176 681 192 695 q 160 638 160 667 l 160 638 l 160 402 q 174 388 160 388 l 174 388 l 209 388 q 263 435 253 388 l 263 435 l 274 485 q 289 498 277 498 l 289 498 q 301 481 301 498 l 301 481 l 301 256 q 289 239 301 239 l 289 239 q 274 252 277 239 l 274 252 l 263 301 q 244 347 256 336 q 208 358 231 358 l 208 358 l 174 358 q 160 344 160 358 l 160 344 l 160 71 q 167 42 160 50 q 194 30 173 33 l 194 30 l 241 23 q 252 12 252 21 l 252 12 q 237 0 252 0 l 237 0"},"G":{"ha":521,"o":"m 291 -9 l 291 -9 q 154 37 210 -9 q 69 167 98 83 q 40 364 40 250 l 40 364 q 74 557 40 474 q 168 685 108 639 q 304 730 227 730 l 304 730 q 375 723 343 730 q 431 703 407 715 l 431 703 q 444 682 444 696 l 444 682 l 447 530 q 435 513 447 513 l 435 513 q 421 526 424 513 l 421 526 l 413 556 q 363 670 391 639 q 286 701 335 701 l 286 701 q 166 615 213 701 q 118 364 118 528 l 118 364 q 167 107 118 195 q 291 18 215 18 l 291 18 q 353 36 332 18 q 374 103 374 54 l 374 103 l 374 322 q 368 351 374 343 q 340 361 361 359 l 340 361 l 301 365 q 288 377 288 366 l 288 377 q 303 388 288 388 l 303 388 l 486 388 q 501 376 501 388 l 501 376 q 490 365 501 367 l 490 365 l 475 363 q 449 351 453 360 q 445 321 445 342 l 445 321 l 445 50 q 439 33 445 39 q 418 18 433 26 l 418 18 q 363 -1 394 6 q 291 -9 332 -9"},"H":{"ha":546,"o":"m 217 0 l 34 0 q 19 11 19 0 l 19 11 q 32 23 19 20 l 32 23 l 55 27 q 83 38 76 31 q 89 66 89 45 l 89 66 l 89 654 q 83 682 89 675 q 55 693 76 689 l 55 693 l 32 697 q 19 709 19 700 l 19 709 q 34 720 19 720 l 34 720 l 217 720 q 232 708 232 720 l 232 708 q 221 697 232 699 l 221 697 l 194 693 q 167 682 173 690 q 160 653 160 674 l 160 653 l 160 402 q 174 388 160 388 l 174 388 l 372 388 q 386 402 386 388 l 386 402 l 386 653 q 380 682 386 674 q 352 693 373 690 l 352 693 l 325 697 q 314 708 314 699 l 314 708 q 329 720 314 720 l 329 720 l 512 720 q 527 709 527 720 l 527 709 q 514 697 527 700 l 514 697 l 491 693 q 464 682 470 689 q 457 654 457 675 l 457 654 l 457 66 q 464 38 457 45 q 491 27 470 31 l 491 27 l 514 23 q 527 11 527 20 l 527 11 q 512 0 527 0 l 512 0 l 329 0 q 314 12 314 0 l 314 12 q 325 23 314 21 l 325 23 l 352 27 q 380 38 373 30 q 386 67 386 46 l 386 67 l 386 344 q 372 358 386 358 l 372 358 l 174 358 q 160 344 160 358 l 160 344 l 160 67 q 167 38 160 46 q 194 27 173 30 l 194 27 l 221 23 q 232 12 232 21 l 232 12 q 217 0 232 0 l 217 0"},"I":{"ha":249,"o":"m 215 0 l 34 0 q 19 11 19 0 l 19 11 q 32 23 19 20 l 32 23 l 55 27 q 83 38 76 31 q 89 66 89 45 l 89 66 l 89 654 q 83 682 89 675 q 55 693 76 689 l 55 693 l 32 697 q 19 709 19 700 l 19 709 q 34 720 19 720 l 34 720 l 215 720 q 230 709 230 720 l 230 709 q 217 697 230 700 l 217 697 l 194 693 q 167 682 173 689 q 160 654 160 675 l 160 654 l 160 66 q 167 38 160 45 q 194 27 173 31 l 194 27 l 217 23 q 230 11 230 20 l 230 11 q 215 0 230 0 l 215 0"},"J":{"ha":249,"o":"m 14 -215 l 14 -215 q -36 -198 -17 -215 q -56 -155 -56 -182 l -56 -155 q -44 -122 -56 -135 q -15 -109 -33 -109 l -15 -109 q 9 -119 2 -109 q 21 -142 16 -129 q 31 -165 25 -155 q 50 -175 37 -175 l 50 -175 q 79 -153 69 -175 q 89 -91 89 -131 l 89 -91 l 89 654 q 83 682 89 675 q 55 693 76 689 l 55 693 l 32 697 q 19 709 19 700 l 19 709 q 34 720 19 720 l 34 720 l 215 720 q 230 709 230 720 l 230 709 q 217 697 230 700 l 217 697 l 194 693 q 167 682 173 689 q 160 654 160 675 l 160 654 l 160 44 q 121 -145 160 -76 q 14 -215 82 -215"},"K":{"ha":496,"o":"m 217 0 l 34 0 q 19 11 19 0 l 19 11 q 32 23 19 20 l 32 23 l 55 27 q 83 38 76 31 q 89 66 89 45 l 89 66 l 89 654 q 83 682 89 675 q 55 693 76 689 l 55 693 l 32 697 q 19 709 19 700 l 19 709 q 34 720 19 720 l 34 720 l 217 720 q 232 708 232 720 l 232 708 q 221 697 232 699 l 221 697 l 194 693 q 167 682 173 690 q 160 653 160 674 l 160 653 l 160 383 q 166 371 160 373 q 177 378 172 369 l 177 378 l 341 635 q 335 693 374 686 l 335 693 l 312 697 q 299 710 299 700 l 299 710 q 313 720 299 720 l 313 720 l 483 720 q 497 709 497 720 l 497 709 q 484 697 497 698 l 484 697 l 465 695 q 414 677 434 692 q 369 623 394 662 l 369 623 l 256 446 q 255 413 246 429 l 255 413 l 443 59 q 460 36 451 43 q 480 27 468 29 l 480 27 l 504 23 q 516 11 516 22 l 516 11 q 502 0 516 0 l 502 0 l 324 0 q 310 11 310 0 l 310 11 q 323 23 310 21 l 323 23 l 340 25 q 356 74 379 30 l 356 74 l 212 348 q 203 357 208 356 q 193 349 198 357 l 193 349 l 172 316 q 163 297 165 306 q 160 274 160 288 l 160 274 l 160 67 q 167 38 160 46 q 194 27 173 30 l 194 27 l 221 23 q 232 12 232 21 l 232 12 q 217 0 232 0 l 217 0"},"L":{"ha":413,"o":"m 357 0 l 34 0 q 19 11 19 0 l 19 11 q 32 23 19 20 l 32 23 l 55 27 q 83 38 76 31 q 89 66 89 45 l 89 66 l 89 654 q 83 682 89 675 q 55 693 76 689 l 55 693 l 32 697 q 19 709 19 700 l 19 709 q 34 720 19 720 l 34 720 l 217 720 q 232 708 232 720 l 232 708 q 221 697 232 699 l 221 697 l 194 693 q 167 682 173 690 q 160 653 160 674 l 160 653 l 160 93 q 181 41 160 57 q 232 25 201 25 l 232 25 q 280 35 255 25 q 324 71 304 44 q 354 148 344 97 l 354 148 l 367 215 q 382 228 370 228 l 382 228 q 394 211 396 228 l 394 211 l 382 23 q 357 0 380 0 l 357 0"},"M":{"ha":665,"o":"m 315 10 l 315 10 q 306 13 311 10 q 299 26 301 16 l 299 26 l 148 639 q 142 646 147 646 q 137 638 137 645 l 137 638 l 117 86 q 126 44 116 58 q 161 25 136 29 l 161 25 l 174 23 q 187 11 187 22 l 187 11 q 172 0 187 0 l 172 0 l 29 0 q 14 11 14 0 l 14 11 q 27 23 14 22 l 27 23 l 40 25 q 76 44 66 29 q 86 86 85 58 l 86 86 l 106 654 q 100 682 107 675 q 70 693 93 689 l 70 693 l 47 697 q 34 709 34 700 l 34 709 q 49 720 34 720 l 49 720 l 169 720 q 207 690 200 720 l 207 690 l 328 191 q 335 184 330 184 q 340 191 339 184 l 340 191 l 466 695 q 498 720 472 720 l 498 720 l 616 720 q 631 709 631 720 l 631 709 q 618 697 631 700 l 618 697 l 595 693 q 567 682 574 689 q 561 654 560 675 l 561 654 l 581 66 q 588 38 582 45 q 615 27 594 31 l 615 27 l 638 23 q 651 11 651 20 l 651 11 q 636 0 651 0 l 636 0 l 455 0 q 440 11 440 0 l 440 11 q 453 23 440 20 l 453 23 l 476 27 q 504 38 497 31 q 510 66 511 45 l 510 66 l 493 638 q 489 646 493 645 q 482 640 484 646 l 482 640 l 330 26 q 324 13 328 16 q 315 10 319 10"},"N":{"ha":540,"o":"m 429 -9 l 429 -9 q 402 15 413 -9 l 402 15 l 131 603 q 124 609 128 610 q 119 600 119 608 l 119 600 l 119 86 q 129 44 119 58 q 163 25 138 29 l 163 25 l 176 23 q 189 11 189 22 l 189 11 q 174 0 189 0 l 174 0 l 31 0 q 16 11 16 0 l 16 11 q 29 23 16 22 l 29 23 l 42 25 q 78 44 68 29 q 88 86 88 58 l 88 86 l 88 654 q 82 682 88 675 q 52 693 75 689 l 52 693 l 29 697 q 16 709 16 700 l 16 709 q 31 720 16 720 l 31 720 l 138 720 q 173 698 163 720 l 173 698 l 409 179 q 417 174 412 173 q 421 181 421 175 l 421 181 l 421 634 q 410 679 421 666 q 382 694 399 691 l 382 694 l 364 697 q 351 709 351 700 l 351 709 q 366 720 351 720 l 366 720 l 509 720 q 524 709 524 720 l 524 709 q 511 697 524 698 l 511 697 l 498 695 q 462 679 472 691 q 452 634 452 666 l 452 634 l 452 23 q 446 -2 452 5 q 429 -9 439 -9"},"O":{"ha":540,"o":"m 270 -9 l 270 -9 q 180 20 222 -9 q 107 98 138 48 q 58 216 75 148 q 40 361 40 283 l 40 361 q 58 506 40 439 q 107 624 75 573 q 180 702 138 674 q 270 730 222 730 l 270 730 q 360 702 318 730 q 433 624 401 674 q 483 506 465 573 q 500 361 500 439 l 500 361 q 483 216 500 283 q 433 98 465 148 q 360 20 401 48 q 270 -9 318 -9 m 270 18 l 270 18 q 381 103 341 18 q 421 361 421 188 l 421 361 q 381 619 421 534 q 270 703 341 703 l 270 703 q 160 619 200 703 q 119 361 119 534 l 119 361 q 160 103 119 188 q 270 18 200 18"},"P":{"ha":466,"o":"m 237 0 l 34 0 q 19 11 19 0 l 19 11 q 32 23 19 20 l 32 23 l 55 27 q 83 38 76 31 q 89 66 89 45 l 89 66 l 89 654 q 83 682 89 675 q 55 693 76 689 l 55 693 l 32 697 q 19 709 19 700 l 19 709 q 34 720 19 720 l 34 720 l 243 720 q 347 695 302 720 q 417 624 392 669 q 442 520 442 579 l 442 520 q 417 419 442 463 q 348 351 392 375 q 246 326 304 326 l 246 326 l 174 326 q 160 312 160 326 l 160 312 l 160 70 q 168 42 160 49 q 204 29 176 34 l 204 29 l 241 23 q 252 12 252 21 l 252 12 q 237 0 252 0 l 237 0 m 160 655 l 160 406 q 227 351 160 351 l 227 351 q 330 397 292 351 q 367 523 367 443 l 367 523 q 329 650 367 605 q 221 695 291 695 l 221 695 q 160 655 160 695 l 160 655"},"Q":{"ha":540,"o":"m 434 -215 l 434 -215 q 371 -202 404 -215 q 311 -159 337 -190 q 275 -71 285 -128 l 275 -71 q 259 -25 270 -39 q 222 -1 248 -11 l 222 -1 q 129 68 170 16 q 64 195 87 119 q 40 361 40 271 l 40 361 q 58 506 40 439 q 107 624 75 573 q 180 702 138 674 q 270 730 222 730 l 270 730 q 360 702 318 730 q 433 624 401 674 q 483 506 465 573 q 500 361 500 439 l 500 361 q 476 192 500 269 q 409 63 451 114 q 312 -3 366 12 l 312 -3 q 306 -8 306 -4 q 311 -17 306 -13 l 311 -17 q 333 -39 324 -26 q 348 -74 342 -53 l 348 -74 q 395 -158 366 -132 q 457 -184 423 -184 l 457 -184 q 518 -165 487 -184 l 518 -165 q 533 -162 526 -160 q 540 -172 540 -164 l 540 -172 q 532 -186 540 -179 l 532 -186 q 493 -206 516 -198 q 434 -215 469 -215 m 270 18 l 270 18 q 381 103 341 18 q 421 361 421 188 l 421 361 q 381 619 421 534 q 270 703 341 703 l 270 703 q 160 619 200 703 q 119 361 119 534 l 119 361 q 160 103 119 188 q 270 18 200 18"},"R":{"ha":513,"o":"m 450 -9 l 450 -9 q 339 105 363 -9 l 339 105 l 316 216 q 292 298 305 270 q 255 336 278 326 q 190 346 231 346 l 190 346 q 168 339 176 346 q 160 320 160 331 l 160 320 l 160 70 q 168 42 160 49 q 204 29 176 34 l 204 29 l 241 23 q 252 12 252 21 l 252 12 q 237 0 252 0 l 237 0 l 34 0 q 19 11 19 0 l 19 11 q 32 23 19 20 l 32 23 l 55 27 q 83 38 76 31 q 89 66 89 45 l 89 66 l 89 654 q 83 682 89 675 q 55 693 76 689 l 55 693 l 32 697 q 19 709 19 700 l 19 709 q 34 720 19 720 l 34 720 l 237 720 q 342 697 296 720 q 414 634 388 674 q 440 540 440 593 l 440 540 q 402 427 440 477 q 306 355 364 376 l 306 355 q 299 349 299 353 q 305 341 298 344 l 305 341 q 356 299 337 326 q 384 227 374 272 l 384 227 l 406 125 q 432 51 417 73 q 470 29 447 29 l 470 29 q 485 32 478 29 q 501 41 491 34 l 501 41 q 516 44 509 46 q 523 33 523 41 l 523 33 q 501 4 523 16 q 450 -9 479 -9 m 227 371 l 227 371 q 330 417 295 371 q 365 538 365 462 l 365 538 q 325 654 365 612 q 213 695 284 695 l 213 695 q 160 655 160 695 l 160 655 l 160 426 q 227 371 160 371"},"S":{"ha":407,"o":"m 184 -9 l 184 -9 q 140 -5 164 -9 q 94 5 115 -1 q 60 18 72 11 l 60 18 q 50 27 53 22 q 46 42 46 31 l 46 42 l 41 199 q 54 219 41 219 l 54 219 q 69 201 65 219 l 69 201 l 78 163 q 205 20 112 20 l 205 20 q 285 54 255 20 q 314 148 314 87 l 314 148 q 284 258 314 207 q 186 359 253 309 l 186 359 q 78 462 112 412 q 44 567 44 511 l 44 567 q 96 686 44 641 q 227 730 147 730 l 227 730 q 285 723 257 730 q 331 703 313 716 l 331 703 q 341 694 337 699 q 344 681 344 689 l 344 681 l 347 530 q 334 513 347 513 l 334 513 q 321 527 325 513 l 321 527 l 314 552 q 269 665 292 629 q 201 700 245 700 l 201 700 q 133 672 158 700 q 107 593 107 644 l 107 593 q 135 511 107 550 q 233 416 163 472 l 233 416 q 343 299 308 355 q 377 178 377 242 l 377 178 q 352 80 377 122 q 284 15 327 38 q 184 -9 240 -9"},"T":{"ha":461,"o":"m 343 0 l 118 0 q 103 11 103 0 l 103 11 q 116 23 103 22 l 116 23 l 161 30 q 188 41 181 33 q 195 69 195 48 l 195 69 l 195 669 q 189 689 195 683 q 164 695 183 695 l 164 695 q 91 663 127 695 q 44 560 55 631 l 44 560 l 39 527 q 25 514 37 514 l 25 514 q 12 531 10 514 l 12 531 l 21 712 q 39 735 23 735 l 39 735 q 52 732 46 735 q 73 724 58 728 q 119 720 87 720 l 119 720 l 342 720 q 389 724 374 720 q 410 732 403 728 q 422 735 416 735 l 422 735 q 440 712 438 735 l 440 712 l 449 531 q 436 514 451 514 l 436 514 q 422 527 424 514 l 422 527 l 417 560 q 371 663 407 631 q 297 695 335 695 l 297 695 q 272 689 278 695 q 266 669 266 683 l 266 669 l 266 69 q 274 41 266 48 q 300 30 281 33 l 300 30 l 345 23 q 358 11 358 22 l 358 11 q 343 0 358 0 l 343 0"},"U":{"ha":536,"o":"m 275 -9 l 275 -9 q 180 17 221 -9 q 115 88 138 42 q 92 192 92 133 l 92 192 l 92 654 q 86 682 92 675 q 58 693 79 689 l 58 693 l 35 697 q 22 709 22 700 l 22 709 q 37 720 22 720 l 37 720 l 220 720 q 235 708 235 720 l 235 708 q 224 697 235 699 l 224 697 l 197 693 q 170 682 177 690 q 163 653 163 674 l 163 653 l 163 191 q 197 73 163 115 q 292 31 231 31 l 292 31 q 388 73 354 31 q 422 191 422 115 l 422 191 l 422 633 q 388 693 422 687 l 388 693 l 361 697 q 350 708 350 699 l 350 708 q 365 720 350 720 l 365 720 l 509 720 q 524 709 524 720 l 524 709 q 511 697 524 700 l 511 697 l 488 693 q 454 634 454 687 l 454 634 l 454 192 q 405 46 454 101 q 275 -9 356 -9"},"V":{"ha":457,"o":"m 229 -10 l 229 -10 q 220 -7 225 -10 q 213 6 215 -4 l 213 6 l 55 640 q 40 679 48 668 q 11 694 31 690 l 11 694 l -4 697 q -18 710 -18 700 l -18 710 q -3 720 -18 720 l -3 720 l 168 720 q 182 709 182 720 l 182 709 q 165 697 182 698 l 165 697 l 146 695 q 125 685 129 694 q 125 653 120 675 l 125 653 l 241 172 q 248 166 243 166 q 253 172 252 166 l 253 172 l 368 632 q 338 695 382 689 l 338 695 l 323 697 q 306 709 306 700 l 306 709 q 320 720 306 720 l 320 720 l 460 720 q 475 710 475 720 l 475 710 q 461 697 475 700 l 461 697 l 446 694 q 417 675 427 690 q 399 631 406 659 l 399 631 l 244 6 q 238 -7 242 -4 q 229 -10 233 -10"},"W":{"ha":651,"o":"m 432 -10 l 432 -10 q 424 -7 428 -10 q 418 6 420 -4 l 418 6 l 341 316 q 335 324 340 324 q 328 316 330 323 l 328 316 l 242 6 q 236 -7 239 -4 q 228 -10 232 -10 l 228 -10 q 220 -7 224 -10 q 213 6 215 -4 l 213 6 l 55 640 q 40 679 48 668 q 11 694 31 690 l 11 694 l -4 697 q -18 710 -18 700 l -18 710 q -3 720 -18 720 l -3 720 l 158 720 q 172 709 172 720 l 172 709 q 157 697 172 700 l 157 697 l 146 695 q 125 684 129 692 q 125 653 120 675 l 125 653 l 243 165 q 250 158 245 158 q 256 165 254 158 l 256 165 l 301 328 q 312 398 312 366 q 302 469 312 430 l 302 469 l 260 640 q 247 680 253 668 q 229 694 240 692 l 229 694 l 214 697 q 200 710 200 700 l 200 710 q 215 720 200 720 l 215 720 l 352 720 q 366 709 366 720 l 366 709 q 351 697 366 700 l 351 697 l 340 695 q 325 684 327 693 q 327 653 322 675 l 327 653 l 361 510 q 368 503 363 503 q 374 510 372 503 l 374 510 l 410 632 q 419 682 421 670 q 407 695 416 694 l 407 695 l 396 697 q 381 709 381 700 l 381 709 q 395 720 381 720 l 395 720 l 490 720 q 507 709 507 720 l 507 709 q 490 697 507 699 l 490 697 l 479 696 q 458 680 466 695 q 439 631 449 665 l 439 631 l 401 500 q 390 431 390 463 q 398 359 389 398 l 398 359 l 443 171 q 450 164 445 164 q 455 171 454 164 l 455 171 l 570 632 q 552 695 584 690 l 552 695 l 541 697 q 526 710 526 700 l 526 710 q 540 720 526 720 l 540 720 l 652 720 q 669 709 669 720 l 669 709 q 652 697 669 699 l 652 697 l 641 696 q 619 681 628 695 q 601 631 609 666 l 601 631 l 446 6 q 440 -7 444 -4 q 432 -10 436 -10"},"X":{"ha":546,"o":"m 202 0 l 38 0 q 24 4 28 0 q 20 12 20 8 l 20 12 q 35 25 20 22 l 35 25 l 51 28 q 102 48 83 34 q 133 91 120 61 l 133 91 l 233 329 q 240 352 238 340 q 235 376 241 363 l 235 376 l 110 653 q 89 684 100 676 q 64 694 77 692 l 64 694 l 45 697 q 29 710 29 700 l 29 710 q 46 720 29 720 l 46 720 l 222 720 q 240 710 240 720 l 240 710 q 223 697 240 700 l 223 697 l 204 694 q 181 682 187 691 q 183 653 174 673 l 183 653 l 278 440 q 288 431 282 431 q 297 440 293 431 l 297 440 l 383 643 q 389 676 392 665 q 369 690 386 686 l 369 690 l 341 696 q 324 710 324 700 l 324 710 q 342 720 324 720 l 342 720 l 495 720 q 510 717 506 720 q 513 708 513 713 l 513 708 q 498 695 513 698 l 498 695 l 482 692 q 440 674 457 688 q 410 629 423 659 l 410 629 l 315 407 q 310 382 310 394 q 316 356 309 370 l 316 356 l 445 67 q 468 36 456 43 q 491 27 479 29 l 491 27 l 510 24 q 527 10 527 21 l 527 10 q 509 0 527 0 l 509 0 l 332 0 q 314 12 314 0 l 314 12 q 330 24 314 21 l 330 24 l 350 27 q 374 39 367 29 q 373 67 381 48 l 373 67 l 270 296 q 261 305 266 305 q 251 296 255 305 l 251 296 l 161 77 q 155 45 152 55 q 175 30 158 34 l 175 30 l 203 24 q 220 10 220 20 l 220 10 q 202 0 220 0 l 202 0"},"Y":{"ha":477,"o":"m 352 0 l 127 0 q 112 11 112 0 l 112 11 q 125 23 112 22 l 125 23 l 170 30 q 197 41 190 33 q 204 69 204 48 l 204 69 l 204 305 q 194 348 204 327 l 194 348 l 47 656 q 31 682 40 673 q 5 695 22 691 l 5 695 l -4 697 q -18 710 -18 700 l -18 710 q -3 720 -18 720 l -3 720 l 168 720 q 182 709 182 720 l 182 709 q 165 697 182 698 l 165 697 l 146 695 q 122 684 129 694 q 125 653 115 674 l 125 653 l 248 391 q 258 384 252 384 q 268 391 264 384 l 268 391 l 386 632 q 393 675 399 658 q 363 694 386 691 l 363 694 l 341 697 q 324 709 324 700 l 324 709 q 338 720 324 720 l 338 720 l 480 720 q 495 710 495 720 l 495 710 q 481 697 495 700 l 481 697 l 471 695 q 447 678 457 692 q 419 631 436 664 l 419 631 l 288 368 q 278 342 281 354 q 275 313 275 329 l 275 313 l 275 69 q 283 41 275 48 q 309 30 290 33 l 309 30 l 354 23 q 367 11 367 22 l 367 11 q 352 0 367 0 l 352 0"},"Z":{"ha":427,"o":"m 364 0 l 40 0 q 21 8 26 0 q 21 29 15 16 l 21 29 l 310 674 q 299 690 316 690 l 299 690 l 199 690 q 132 667 162 690 q 81 577 101 643 l 81 577 l 66 527 q 52 514 63 514 l 52 514 q 39 531 37 514 l 39 531 l 57 717 q 74 740 59 740 l 74 740 q 87 735 81 740 q 108 725 93 730 q 154 720 122 720 l 154 720 l 375 720 q 395 713 389 720 q 394 691 400 705 l 394 691 l 105 46 q 116 30 99 30 l 116 30 l 227 30 q 282 38 255 30 q 330 72 309 46 q 361 148 351 97 l 361 148 l 374 215 q 389 228 377 228 l 389 228 q 401 211 403 228 l 401 211 l 389 23 q 364 0 387 0 l 364 0"},"[":{"ha":325,"o":"m 251 -98 l 110 -98 q 86 -74 86 -98 l 86 -74 l 86 716 q 110 740 86 740 l 110 740 l 251 740 q 265 728 265 740 l 265 728 q 251 716 265 716 l 251 716 l 156 716 q 144 704 144 716 l 144 704 l 144 -62 q 156 -74 144 -74 l 156 -74 l 251 -74 q 265 -86 265 -74 l 265 -86 q 251 -98 265 -98 l 251 -98"},"\\":{"ha":258,"o":"m 240 -130 l 228 -130 q 217 -121 219 -130 l 217 -121 l 10 779 q 18 790 8 790 l 18 790 l 30 790 q 41 781 39 790 l 41 781 l 248 -119 q 240 -130 250 -130 l 240 -130"},"]":{"ha":325,"o":"m 215 -98 l 215 -98 l 74 -98 q 60 -86 60 -98 l 60 -86 q 74 -74 60 -74 l 74 -74 l 169 -74 q 181 -62 181 -74 l 181 -62 l 181 704 q 169 716 181 716 l 169 716 l 74 716 q 60 728 60 716 l 60 728 q 74 740 60 740 l 74 740 l 215 740 q 239 716 239 740 l 239 716 l 239 -74 q 215 -98 239 -98"},"^":{"ha":433,"o":"m 217 661 l 86 491 q 68 485 79 481 q 66 507 56 488 l 66 507 l 182 729 q 193 738 186 736 q 207 740 200 740 l 207 740 l 226 740 q 241 738 234 740 q 251 729 247 736 l 251 729 l 367 507 q 367 485 378 488 q 347 491 355 481 l 347 491 l 217 661"},"_":{"ha":376,"o":"m 351 -109 l 25 -109 q 15 -99 15 -109 l 15 -99 l 15 -85 q 25 -75 15 -75 l 25 -75 l 351 -75 q 361 -85 361 -75 l 361 -85 l 361 -99 q 351 -109 361 -109 l 351 -109"},"`":{"ha":354,"o":"m 269 586 l 269 586 l 91 667 q 67 685 73 675 q 60 707 60 694 l 60 707 q 70 730 60 719 q 98 740 80 740 l 98 740 q 120 736 111 740 q 139 724 129 732 l 139 724 l 283 612 q 292 590 299 601 l 292 590 q 269 586 286 579"},"a":{"ha":399,"o":"m 120 -9 l 120 -9 q 51 18 78 -9 q 24 88 24 44 l 24 88 q 51 170 24 131 q 125 239 78 208 q 232 289 172 270 l 232 289 q 245 306 245 293 l 245 306 l 245 397 q 230 466 245 445 q 189 486 215 486 l 189 486 q 144 464 164 486 q 114 388 123 441 l 114 388 q 93 342 109 356 q 59 327 76 327 l 59 327 q 31 355 31 327 l 31 355 q 48 413 31 384 q 91 465 64 441 q 150 502 118 488 q 214 516 182 516 l 214 516 q 313 401 313 516 l 313 401 l 313 95 q 334 53 313 53 l 334 53 q 358 71 347 53 q 369 130 369 88 l 369 130 q 382 146 369 146 l 382 146 q 394 129 394 146 l 394 129 q 369 24 394 56 q 311 -9 343 -9 l 311 -9 q 273 11 287 -9 q 254 57 259 30 l 254 57 q 246 68 253 67 q 231 58 238 68 l 231 58 q 182 8 207 25 q 120 -9 157 -9 m 147 37 l 147 37 q 195 56 173 37 q 231 105 217 74 q 245 175 245 136 l 245 175 l 245 248 q 224 259 245 267 l 224 259 q 130 199 163 237 q 96 106 96 160 l 96 106 q 147 37 96 37"},"b":{"ha":443,"o":"m 206 -9 l 206 -9 q 127 17 165 -9 l 127 17 q 87 9 105 32 l 87 9 q 72 -5 77 -2 q 62 -9 67 -9 l 62 -9 q 54 5 51 -9 l 54 5 q 60 64 58 28 q 62 160 62 100 l 62 160 l 62 640 q 57 665 62 658 q 37 673 51 671 l 37 673 l 16 676 q 5 688 5 678 l 5 688 q 16 700 5 698 l 16 700 q 63 714 44 706 q 95 730 82 722 l 95 730 q 119 740 111 740 l 119 740 q 130 724 130 740 l 130 724 l 130 477 q 137 467 130 469 q 151 472 143 464 l 151 472 q 245 516 194 516 l 245 516 q 327 486 291 516 q 383 401 362 455 q 403 274 403 347 l 403 274 q 377 127 403 191 q 307 27 351 63 q 206 -9 262 -9 m 204 16 l 204 16 q 295 82 260 16 q 329 260 329 148 l 329 260 q 299 417 329 363 q 214 471 269 471 l 214 471 q 155 443 180 471 q 130 365 130 415 l 130 365 l 130 113 q 151 42 130 68 q 204 16 171 16"},"c":{"ha":339,"o":"m 180 -9 l 180 -9 q 101 21 136 -9 q 44 105 65 50 q 23 236 23 160 l 23 236 q 49 384 23 321 q 118 482 74 447 q 216 516 162 516 l 216 516 q 288 498 262 516 l 288 498 q 298 476 298 491 l 298 476 l 300 354 q 288 339 300 339 l 288 339 q 274 352 277 339 l 274 352 q 247 437 260 407 q 220 479 234 467 q 189 490 206 490 l 189 490 q 148 467 169 490 q 112 393 126 444 q 97 257 97 341 l 97 257 q 125 96 97 150 q 196 42 152 42 l 196 42 q 255 71 231 42 q 295 176 278 100 l 295 176 q 307 187 298 187 l 307 187 q 316 167 319 187 l 316 167 q 286 59 305 97 q 240 6 266 20 q 180 -9 213 -9"},"d":{"ha":457,"o":"m 181 -9 l 181 -9 q 103 22 137 -9 q 49 107 68 52 q 30 233 30 161 l 30 233 q 56 381 30 317 q 128 480 82 444 q 232 516 174 516 l 232 516 q 260 514 246 516 q 287 505 274 511 l 287 505 q 303 512 303 497 l 303 512 l 303 640 q 298 665 303 658 q 278 673 292 672 l 278 673 l 252 676 q 241 688 241 678 l 241 688 q 252 700 241 698 l 252 700 q 304 714 284 706 q 336 730 323 722 l 336 730 q 360 740 352 740 l 360 740 q 371 724 371 740 l 371 724 l 371 95 q 392 53 371 53 l 392 53 q 416 71 405 53 q 427 130 427 88 l 427 130 q 440 146 427 146 l 440 146 q 452 129 452 146 l 452 129 q 427 24 452 56 q 370 -9 402 -9 l 370 -9 q 326 11 341 -9 q 306 57 311 30 l 306 57 q 299 66 305 65 q 288 58 293 66 l 288 58 q 237 5 260 19 q 181 -9 214 -9 m 203 37 l 203 37 q 252 55 229 37 q 289 102 274 72 q 303 169 303 132 l 303 169 l 303 394 q 283 465 303 439 q 229 491 262 491 l 229 491 q 139 426 173 491 q 104 247 104 360 l 104 247 q 131 91 104 144 q 203 37 157 37"},"e":{"ha":355,"o":"m 192 -9 l 192 -9 q 106 23 144 -9 q 46 114 68 55 q 23 249 23 172 l 23 249 q 46 388 23 328 q 109 482 69 448 q 198 516 149 516 l 198 516 q 294 468 257 516 q 330 310 330 419 l 330 310 q 305 277 330 277 l 305 277 l 115 277 q 95 254 95 277 l 95 254 q 126 95 95 148 q 205 42 157 42 l 205 42 q 267 69 243 42 q 306 160 291 96 l 306 160 q 319 171 309 171 l 319 171 q 328 151 331 171 l 328 151 q 277 27 312 62 q 192 -9 242 -9 m 112 302 l 112 302 l 213 302 q 261 352 261 302 l 261 352 q 245 454 261 417 q 197 491 229 491 l 197 491 q 132 446 158 491 q 97 318 105 401 l 97 318 q 112 302 95 302"},"f":{"ha":288,"o":"m 85 67 l 85 67 l 85 458 q 61 482 85 482 l 61 482 l 38 482 q 26 492 26 482 l 26 492 q 38 503 26 502 l 38 503 q 85 544 85 508 l 85 544 l 85 550 q 101 647 85 602 q 146 720 116 692 q 218 748 175 748 l 218 748 q 285 725 258 748 q 312 670 312 702 l 312 670 q 303 642 312 651 q 277 632 293 632 l 277 632 q 249 645 257 632 q 235 675 240 658 q 223 704 230 691 q 196 717 215 717 l 196 717 q 165 695 176 717 q 153 610 153 672 l 153 610 l 153 522 q 165 510 153 510 l 165 510 l 251 510 q 266 496 266 510 l 266 496 q 251 482 266 482 l 251 482 l 165 482 q 153 470 153 482 l 153 470 l 153 67 q 160 38 153 46 q 187 28 166 30 l 187 28 l 240 23 q 251 12 251 21 l 251 12 q 236 0 251 0 l 236 0 l 28 0 q 13 11 13 0 l 13 11 q 26 23 13 22 l 26 23 l 51 25 q 79 37 72 27 q 85 67 85 46"},"g":{"ha":402,"o":"m 178 -215 l 178 -215 q 58 -184 102 -215 q 14 -111 14 -154 l 14 -111 q 19 -78 14 -93 q 41 -45 24 -64 q 91 4 57 -26 l 91 4 q 103 25 103 15 q 91 39 103 34 l 91 39 q 48 78 55 54 q 65 121 41 101 l 65 121 l 137 183 q 136 200 149 193 l 136 200 q 71 262 95 220 q 47 352 47 304 l 47 352 q 67 435 47 398 q 121 494 87 472 q 197 516 155 516 l 197 516 q 243 508 221 516 l 243 508 q 260 517 257 503 l 260 517 q 294 577 269 555 q 342 598 318 598 l 342 598 q 380 585 365 598 q 394 551 394 571 l 394 551 q 384 524 394 534 q 359 514 374 514 l 359 514 q 340 519 346 514 q 329 529 334 524 q 313 534 324 534 l 313 534 q 283 508 289 534 l 283 508 q 284 491 280 498 q 294 477 287 484 l 294 477 q 332 421 318 454 q 345 348 345 388 l 345 348 q 326 262 345 300 q 273 202 306 224 q 197 180 239 180 l 197 180 q 166 173 179 180 q 140 151 153 165 l 140 151 l 123 132 q 116 102 110 116 q 143 87 121 87 l 143 87 l 229 87 q 343 52 301 87 q 385 -46 385 16 l 385 -46 q 357 -133 385 -95 q 283 -193 329 -171 q 178 -215 236 -215 m 196 205 l 196 205 q 253 244 232 205 q 274 350 274 283 l 274 350 q 253 455 274 415 q 196 494 231 494 l 196 494 q 140 455 161 494 q 118 350 118 415 l 118 350 q 139 244 118 283 q 196 205 160 205 m 190 -193 l 190 -193 q 256 -177 226 -193 q 304 -132 286 -161 q 321 -68 321 -104 l 321 -68 q 295 2 321 -23 q 220 26 268 26 l 220 26 l 197 26 q 151 20 166 26 q 121 -1 135 14 l 121 -1 q 82 -54 90 -34 q 74 -95 74 -74 l 74 -95 q 105 -166 74 -139 q 190 -193 135 -193"},"h":{"ha":470,"o":"m 202 0 l 27 0 q 15 11 15 0 l 15 11 q 26 23 15 21 l 26 23 l 40 25 q 68 37 61 28 q 74 67 74 46 l 74 67 l 74 640 q 69 665 74 658 q 49 673 63 671 l 49 673 l 28 676 q 17 688 17 678 l 17 688 q 28 700 17 698 l 28 700 q 75 714 56 706 q 107 730 94 722 l 107 730 q 131 740 123 740 l 131 740 q 142 724 142 740 l 142 724 l 142 459 q 148 449 142 450 q 163 455 154 447 l 163 455 q 230 503 201 490 q 291 516 259 516 l 291 516 q 365 485 338 516 q 392 392 392 453 l 392 392 l 392 67 q 399 38 392 46 q 426 26 405 29 l 426 26 l 448 23 q 459 11 459 21 l 459 11 q 447 0 459 0 l 447 0 l 279 0 q 265 11 265 0 l 265 11 q 276 23 265 21 l 276 23 l 290 25 q 318 37 311 28 q 324 67 324 46 l 324 67 l 324 381 q 306 450 324 430 q 255 470 288 470 l 255 470 q 198 452 223 470 q 157 403 172 433 q 142 335 142 372 l 142 335 l 142 67 q 149 37 142 46 q 176 26 155 28 l 176 26 l 203 23 q 214 11 214 21 l 214 11 q 202 0 214 0 l 202 0"},"i":{"ha":223,"o":"m 114 605 l 114 605 q 79 620 93 605 q 64 658 64 635 l 64 658 q 79 696 64 681 q 114 710 93 710 l 114 710 q 149 696 135 710 q 163 658 163 681 l 163 658 q 149 620 163 635 q 114 605 135 605 m 197 0 l 30 0 q 15 11 15 0 l 15 11 q 28 23 15 20 l 28 23 l 40 25 q 72 38 65 29 q 79 67 79 46 l 79 67 l 79 403 q 74 428 79 421 q 54 436 68 434 l 54 436 l 33 439 q 20 450 20 440 l 20 450 q 36 461 20 458 l 36 461 q 86 477 67 466 q 123 504 105 488 l 123 504 q 138 513 132 513 l 138 513 q 147 501 147 513 l 147 501 l 147 67 q 153 37 147 46 q 176 26 159 28 l 176 26 l 201 23 q 212 12 212 21 l 212 12 q 197 0 212 0 l 197 0"},"j":{"ha":215,"o":"m 114 605 l 114 605 q 78 621 92 605 q 64 658 64 636 l 64 658 q 78 696 64 681 q 114 710 92 710 l 114 710 q 150 696 136 710 q 163 658 163 681 l 163 658 q 149 620 163 635 q 114 605 135 605 m 4 -215 l 4 -215 q -44 -200 -25 -215 q -63 -161 -63 -185 l -63 -161 q -52 -131 -63 -144 q -24 -119 -42 -119 l -24 -119 q -1 -127 -8 -119 q 10 -147 6 -136 q 21 -166 14 -158 q 40 -175 27 -175 l 40 -175 q 69 -153 59 -175 q 79 -91 79 -131 l 79 -91 l 79 403 q 74 428 79 421 q 54 436 68 434 l 54 436 l 33 439 q 20 450 20 440 l 20 450 q 36 461 20 458 l 36 461 q 86 477 67 466 q 123 504 105 488 l 123 504 q 138 513 132 513 l 138 513 q 147 501 147 513 l 147 501 l 147 44 q 108 -145 147 -76 q 4 -215 69 -215"},"k":{"ha":451,"o":"m 202 0 l 27 0 q 15 11 15 0 l 15 11 q 26 23 15 21 l 26 23 l 40 25 q 68 37 61 28 q 74 67 74 46 l 74 67 l 74 640 q 69 665 74 658 q 49 673 63 671 l 49 673 l 28 676 q 17 688 17 678 l 17 688 q 28 700 17 698 l 28 700 q 75 714 56 706 q 107 730 94 722 l 107 730 q 131 740 123 740 l 131 740 q 142 724 142 740 l 142 724 l 142 305 q 151 293 142 295 q 167 299 159 290 l 167 299 l 284 425 q 302 464 305 448 q 278 483 298 479 l 278 483 l 255 487 q 242 500 242 490 l 242 500 q 256 510 242 510 l 256 510 l 428 510 q 442 499 442 510 l 442 499 q 429 487 442 488 l 429 487 l 420 486 q 374 469 397 484 q 319 420 351 453 l 319 420 l 257 354 q 247 309 236 331 l 247 309 l 373 67 q 397 38 384 47 q 429 25 410 29 l 429 25 l 439 23 q 451 11 451 20 l 451 11 q 437 0 451 0 l 437 0 l 263 0 q 249 11 249 0 l 249 11 q 262 23 249 21 l 262 23 l 279 25 q 295 74 317 30 l 295 74 l 200 259 q 186 270 195 269 q 168 263 176 271 l 168 263 l 157 252 q 145 234 148 243 q 142 214 142 225 l 142 214 l 142 67 q 149 37 142 46 q 176 26 155 28 l 176 26 l 203 23 q 214 11 214 21 l 214 11 q 202 0 214 0 l 202 0"},"l":{"ha":220,"o":"m 198 0 l 20 0 q 8 11 8 0 l 8 11 q 19 23 8 21 l 19 23 l 33 25 q 64 37 54 28 q 74 67 74 46 l 74 67 l 74 640 q 69 665 74 658 q 49 673 63 672 l 49 673 l 26 676 q 15 688 15 678 l 15 688 q 26 700 15 698 l 26 700 q 74 714 54 706 q 107 730 94 722 l 107 730 q 131 740 123 740 l 131 740 q 142 724 142 740 l 142 724 l 142 67 q 149 38 142 46 q 176 26 155 29 l 176 26 l 199 23 q 210 11 210 21 l 210 11 q 198 0 210 0 l 198 0"},"m":{"ha":704,"o":"m 199 0 l 30 0 q 15 11 15 0 l 15 11 q 28 23 15 20 l 28 23 l 40 25 q 68 38 61 29 q 74 67 74 46 l 74 67 l 74 403 q 69 428 74 421 q 49 436 63 434 l 49 436 l 28 439 q 15 450 15 440 l 15 450 q 31 461 15 458 l 31 461 q 79 477 62 466 q 113 504 95 488 l 113 504 q 128 513 122 513 l 128 513 q 137 501 137 513 l 137 501 l 137 456 q 143 446 137 449 q 156 449 149 442 l 156 449 q 228 502 197 488 q 289 516 258 516 l 289 516 q 341 501 318 516 q 374 454 363 485 l 374 454 q 385 445 377 446 q 399 450 392 443 l 399 450 q 470 502 440 488 q 531 516 500 516 l 531 516 q 600 485 573 516 q 626 392 626 453 l 626 392 l 626 67 q 633 38 626 46 q 660 26 639 29 l 660 26 l 682 23 q 693 11 693 21 l 693 11 q 681 0 693 0 l 681 0 l 510 0 q 496 11 496 0 l 496 11 q 507 23 496 21 l 507 23 l 521 25 q 551 37 544 28 q 558 67 558 46 l 558 67 l 558 381 q 541 450 558 430 q 493 470 523 470 l 493 470 q 439 452 463 470 q 399 403 414 433 q 384 335 384 372 l 384 335 l 384 67 q 391 38 384 46 q 420 26 398 29 l 420 26 l 442 23 q 453 11 453 21 l 453 11 q 441 0 453 0 l 441 0 l 271 0 q 257 11 257 0 l 257 11 q 268 23 257 21 l 268 23 l 282 25 q 310 37 303 28 q 316 67 316 46 l 316 67 l 316 381 q 299 450 316 430 q 251 470 281 470 l 251 470 q 197 452 221 470 q 157 403 172 433 q 142 335 142 372 l 142 335 l 142 67 q 149 37 142 46 q 176 26 155 28 l 176 26 l 203 23 q 214 12 214 21 l 214 12 q 199 0 214 0 l 199 0"},"n":{"ha":470,"o":"m 199 0 l 30 0 q 15 11 15 0 l 15 11 q 28 23 15 20 l 28 23 l 40 25 q 68 38 61 29 q 74 67 74 46 l 74 67 l 74 403 q 69 428 74 421 q 49 436 63 434 l 49 436 l 28 439 q 15 450 15 440 l 15 450 q 31 461 15 458 l 31 461 q 79 477 62 466 q 113 504 95 488 l 113 504 q 128 513 122 513 l 128 513 q 137 501 137 513 l 137 501 l 137 456 q 144 445 137 447 q 158 450 150 442 l 158 450 q 229 502 198 488 q 293 516 259 516 l 293 516 q 365 485 338 516 q 392 392 392 453 l 392 392 l 392 67 q 399 38 392 46 q 426 26 405 29 l 426 26 l 448 23 q 459 11 459 21 l 459 11 q 447 0 459 0 l 447 0 l 279 0 q 265 11 265 0 l 265 11 q 276 23 265 21 l 276 23 l 290 25 q 318 37 311 28 q 324 67 324 46 l 324 67 l 324 381 q 306 450 324 430 q 255 470 288 470 l 255 470 q 198 452 223 470 q 157 403 172 433 q 142 335 142 372 l 142 335 l 142 67 q 149 37 142 46 q 176 26 155 28 l 176 26 l 203 23 q 214 12 214 21 l 214 12 q 199 0 214 0 l 199 0"},"o":{"ha":408,"o":"m 203 -9 l 203 -9 q 112 26 152 -9 q 47 120 71 60 q 23 254 23 180 l 23 254 q 47 387 23 328 q 112 481 71 446 q 203 516 153 516 l 203 516 q 295 481 254 516 q 359 387 335 446 q 383 254 383 328 l 383 254 q 360 120 383 180 q 295 26 336 60 q 203 -9 254 -9 m 203 16 l 203 16 q 307 254 307 16 l 307 254 q 203 491 307 491 l 203 491 q 99 254 99 491 l 99 254 q 203 16 99 16"},"p":{"ha":444,"o":"m 208 -205 l 27 -205 q 12 -194 12 -205 l 12 -194 q 25 -182 12 -183 l 25 -182 l 39 -180 q 67 -168 60 -177 q 73 -138 73 -159 l 73 -138 l 73 403 q 68 428 73 421 q 48 436 62 434 l 48 436 l 27 439 q 14 450 14 440 l 14 450 q 30 461 14 458 l 30 461 q 78 477 61 466 q 112 504 94 488 l 112 504 q 127 513 121 513 l 127 513 q 136 501 136 513 l 136 501 l 136 470 q 142 461 136 463 q 156 466 148 458 l 156 466 l 167 477 q 208 507 187 497 q 256 516 229 516 l 256 516 q 338 486 302 516 q 394 401 373 455 q 414 274 414 347 l 414 274 q 388 127 414 191 q 317 27 362 63 q 212 -9 271 -9 l 212 -9 q 159 2 182 -9 l 159 2 q 141 -9 141 10 l 141 -9 l 141 -138 q 148 -166 141 -159 q 175 -177 154 -174 l 175 -177 l 212 -182 q 223 -193 223 -184 l 223 -193 q 208 -205 223 -205 l 208 -205 m 215 16 l 215 16 q 306 82 271 16 q 340 260 340 148 l 340 260 q 310 417 340 363 q 225 471 280 471 l 225 471 q 166 443 191 471 q 141 365 141 415 l 141 365 l 141 113 q 162 42 141 68 q 215 16 182 16"},"q":{"ha":442,"o":"m 417 -205 l 236 -205 q 221 -193 221 -205 l 221 -193 q 232 -182 221 -184 l 232 -182 l 269 -177 q 297 -166 290 -174 q 303 -138 303 -159 l 303 -138 l 303 45 q 296 56 303 53 q 282 50 289 58 l 282 50 q 235 4 257 17 q 181 -9 213 -9 l 181 -9 q 103 22 137 -9 q 49 107 68 52 q 30 233 30 161 l 30 233 q 56 381 30 317 q 128 480 82 444 q 232 516 174 516 l 232 516 q 270 510 252 516 q 306 490 287 504 l 306 490 q 346 498 328 475 l 346 498 q 362 513 356 509 q 371 516 367 516 l 371 516 q 379 502 382 516 l 379 502 q 373 444 375 480 q 371 347 371 407 l 371 347 l 371 -138 q 378 -168 371 -159 q 405 -180 384 -177 l 405 -180 l 419 -182 q 432 -194 432 -183 l 432 -194 q 417 -205 432 -205 l 417 -205 m 203 37 l 203 37 q 252 55 229 37 q 289 102 274 72 q 303 169 303 132 l 303 169 l 303 394 q 283 465 303 439 q 229 491 262 491 l 229 491 q 139 426 173 491 q 104 247 104 360 l 104 247 q 131 91 104 144 q 203 37 157 37"},"r":{"ha":318,"o":"m 154 446 l 154 446 q 253 516 195 516 l 253 516 q 302 497 286 516 q 318 453 318 477 l 318 453 q 309 422 318 434 q 279 410 299 410 l 279 410 q 256 418 263 410 q 244 435 248 425 q 233 453 239 445 q 213 460 227 460 l 213 460 q 179 439 195 460 q 153 381 163 417 q 142 299 142 345 l 142 299 l 142 67 q 149 37 142 46 q 176 26 155 28 l 176 26 l 203 23 q 214 12 214 21 l 214 12 q 199 0 214 0 l 199 0 l 30 0 q 15 11 15 0 l 15 11 q 28 23 15 20 l 28 23 l 40 25 q 68 38 61 29 q 74 67 74 46 l 74 67 l 74 403 q 69 428 74 421 q 49 436 63 434 l 49 436 l 28 439 q 15 450 15 440 l 15 450 q 31 461 15 458 l 31 461 q 79 477 62 466 q 113 504 95 488 l 113 504 q 128 513 122 513 l 128 513 q 137 501 137 513 l 137 501 l 137 447 q 143 439 137 440 q 154 446 149 437"},"s":{"ha":308,"o":"m 131 -9 l 131 -9 q 82 -3 108 -9 q 40 10 56 2 l 40 10 q 31 27 31 15 l 31 27 l 28 139 q 41 156 28 156 l 41 156 q 56 140 52 156 l 56 140 q 98 43 73 69 q 157 17 122 17 l 157 17 q 205 40 186 17 q 224 102 224 62 l 224 102 q 202 173 224 142 q 128 241 180 204 l 128 241 q 52 312 76 276 q 28 389 28 347 l 28 389 q 68 481 28 446 q 174 516 108 516 l 174 516 q 213 512 194 516 q 247 497 232 507 l 247 497 q 256 481 256 491 l 256 481 l 258 371 q 246 356 258 356 l 246 356 q 236 361 239 356 q 231 372 233 365 l 231 372 q 191 463 211 437 q 142 488 171 488 l 142 488 q 99 470 116 488 q 82 425 82 452 l 82 425 q 103 364 82 390 q 179 300 124 338 l 179 300 q 255 223 229 264 q 280 132 280 181 l 280 132 q 239 30 280 68 q 131 -9 198 -9"},"t":{"ha":259,"o":"m 147 -9 l 147 -9 q 90 16 112 -9 q 67 96 67 40 l 67 96 l 67 470 q 55 482 67 482 l 55 482 l 26 482 q 10 494 10 482 l 10 494 q 19 508 10 502 l 19 508 q 72 558 52 531 q 107 630 92 584 l 107 630 q 124 651 114 651 l 124 651 q 135 635 135 651 l 135 635 l 135 524 q 149 510 135 510 l 149 510 l 214 510 q 230 496 230 510 l 230 496 q 214 482 230 482 l 214 482 l 149 482 q 135 468 135 482 l 135 468 l 135 95 q 142 61 135 73 q 168 48 149 48 l 168 48 q 203 69 189 48 q 220 137 216 90 l 220 137 q 233 151 222 151 l 233 151 q 245 136 245 151 l 245 136 q 214 25 242 59 q 147 -9 185 -9"},"u":{"ha":454,"o":"m 171 -9 l 171 -9 q 123 2 146 -9 q 85 37 100 13 q 70 101 70 61 l 70 101 l 70 449 q 65 474 70 467 q 45 482 59 481 l 45 482 l 28 484 q 11 497 11 486 l 11 497 q 30 510 11 510 l 30 510 l 123 510 q 138 495 138 510 l 138 495 l 138 122 q 156 57 138 76 q 204 37 173 37 l 204 37 q 259 55 235 37 q 298 102 283 72 q 312 166 312 131 l 312 166 l 312 449 q 307 474 312 467 q 287 482 301 481 l 287 482 l 270 484 q 253 497 253 486 l 253 497 q 272 510 253 510 l 272 510 l 365 510 q 380 495 380 510 l 380 495 l 380 107 q 386 83 380 89 q 405 74 391 76 l 405 74 l 426 71 q 439 61 439 70 l 439 61 q 423 49 439 52 l 423 49 q 374 33 392 45 q 341 4 355 21 l 341 4 q 326 -5 332 -5 l 326 -5 q 317 7 317 -5 l 317 7 l 317 53 q 312 63 317 61 q 300 58 306 64 l 300 58 q 235 6 263 21 q 171 -9 206 -9"},"v":{"ha":393,"o":"m 194 -9 l 194 -9 q 181 2 185 -9 l 181 2 l 48 443 q 35 474 41 467 q 14 484 28 481 l 14 484 l -1 487 q -14 500 -14 490 l -14 500 q 0 510 -14 510 l 0 510 l 165 510 q 179 500 179 510 l 179 500 q 166 487 179 489 l 166 487 l 150 485 q 120 474 126 482 q 120 443 114 465 l 120 443 l 203 154 q 213 143 206 143 q 223 154 220 143 l 223 154 l 304 425 q 309 466 312 452 q 280 483 305 479 l 280 483 l 259 487 q 246 500 246 490 l 246 500 q 260 510 246 510 l 260 510 l 387 510 q 401 499 401 510 l 401 499 q 389 485 401 489 l 389 485 l 380 482 q 355 464 365 477 q 334 419 344 451 l 334 419 l 207 2 q 194 -9 203 -9"},"w":{"ha":597,"o":"m 187 -9 l 187 -9 q 169 11 174 -9 l 169 11 l 48 443 q 35 474 41 467 q 14 484 28 481 l 14 484 l -1 487 q -14 500 -14 490 l -14 500 q 0 510 -14 510 l 0 510 l 162 510 q 176 500 176 510 l 176 500 q 163 487 176 489 l 163 487 l 147 485 q 117 474 123 482 q 117 443 111 465 l 117 443 l 196 152 q 206 142 199 142 q 215 152 212 142 l 215 152 l 283 411 q 286 427 285 419 q 283 444 286 435 l 283 444 q 270 475 276 468 q 249 484 263 481 l 249 484 l 234 487 q 221 500 221 490 l 221 500 q 235 510 221 510 l 235 510 l 397 510 q 411 500 411 510 l 411 500 q 398 487 411 489 l 398 487 l 382 485 q 353 474 358 482 q 352 443 348 465 l 352 443 l 416 154 q 425 144 418 144 q 434 154 431 144 l 434 154 l 510 425 q 515 466 518 452 q 486 483 511 479 l 486 483 l 465 487 q 452 500 452 490 l 452 500 q 466 510 452 510 l 466 510 l 591 510 q 605 499 605 510 l 605 499 q 593 485 605 489 l 593 485 l 584 482 q 558 464 569 477 q 538 419 547 451 l 538 419 l 424 11 q 405 -9 419 -9 l 405 -9 q 388 11 393 -9 l 388 11 l 310 331 q 301 343 307 342 q 291 331 294 343 l 291 331 l 205 11 q 187 -9 200 -9"},"x":{"ha":385,"o":"m 375 0 l 227 0 q 213 10 213 0 l 213 10 q 226 23 213 20 l 226 23 l 241 26 q 257 59 271 33 l 257 59 l 186 199 q 177 207 182 206 q 167 199 171 207 l 167 199 l 102 77 q 109 29 80 35 l 109 29 l 135 23 q 148 10 148 20 l 148 10 q 134 0 148 0 l 134 0 l 6 0 q -8 11 -8 0 l -8 11 q 4 25 -8 22 l 4 25 l 16 28 q 48 44 35 33 q 81 91 61 54 l 81 91 l 155 227 q 157 256 163 242 l 157 256 l 62 443 q 44 474 51 466 q 26 484 36 482 l 26 484 l 11 487 q -2 500 -2 490 l -2 500 q 12 510 -2 510 l 12 510 l 160 510 q 174 500 174 510 l 174 500 q 161 487 174 490 l 161 487 l 146 484 q 130 451 116 477 l 130 451 l 198 319 q 207 312 202 312 q 216 319 212 312 l 216 319 l 276 433 q 269 481 298 475 l 269 481 l 243 487 q 230 500 230 490 l 230 500 q 244 510 230 510 l 244 510 l 372 510 q 386 499 386 510 l 386 499 q 374 485 386 488 l 374 485 l 362 482 q 330 468 343 478 q 297 419 317 457 l 297 419 l 228 291 q 227 260 219 276 l 227 260 l 325 67 q 344 36 337 43 q 361 26 351 28 l 361 26 l 376 23 q 389 10 389 20 l 389 10 q 375 0 389 0 l 375 0"},"y":{"ha":401,"o":"m 83 -205 l 83 -205 q 40 -186 56 -205 q 24 -144 24 -168 l 24 -144 q 35 -112 24 -125 q 65 -99 46 -99 l 65 -99 q 88 -106 81 -99 q 98 -122 95 -113 q 104 -138 101 -131 q 116 -145 107 -145 l 116 -145 q 136 -129 127 -145 q 161 -64 145 -114 l 161 -64 q 174 -12 171 -34 q 173 35 176 10 q 157 96 169 60 l 157 96 l 48 443 q 35 474 41 467 q 14 484 28 481 l 14 484 l -1 487 q -14 500 -14 490 l -14 500 q 0 510 -14 510 l 0 510 l 165 510 q 179 500 179 510 l 179 500 q 166 487 179 489 l 166 487 l 150 485 q 120 474 126 482 q 120 443 113 465 l 120 443 l 208 150 q 218 140 211 140 q 227 150 224 140 l 227 150 l 312 425 q 317 466 320 452 q 288 483 313 479 l 288 483 l 267 487 q 254 500 254 490 l 254 500 q 268 510 254 510 l 268 510 l 395 510 q 409 499 409 510 l 409 499 q 397 485 409 489 l 397 485 l 388 482 q 363 464 373 477 q 342 419 353 451 l 342 419 l 193 -46 q 154 -150 171 -116 q 120 -194 136 -184 q 83 -205 104 -205"},"z":{"ha":353,"o":"m 291 0 l 30 0 q 15 13 15 0 l 15 13 q 18 23 15 17 q 25 38 21 29 l 25 38 l 249 464 q 251 478 254 472 q 237 484 247 484 l 237 484 l 195 484 q 123 467 146 484 q 84 418 99 450 l 84 418 l 62 372 q 47 359 56 359 l 47 359 q 37 374 34 359 l 37 374 l 61 510 q 79 534 65 534 l 79 534 q 90 528 88 534 q 98 516 92 522 q 122 510 103 510 l 122 510 l 322 510 q 337 497 337 510 l 337 497 q 335 487 337 493 q 327 472 332 481 l 327 472 l 104 46 q 103 32 100 38 q 116 26 105 26 l 116 26 l 161 26 q 244 43 220 26 q 283 96 268 59 l 283 96 l 313 169 q 328 182 319 182 l 328 182 q 338 165 341 182 l 338 165 l 312 18 q 291 0 309 0 l 291 0"},"{":{"ha":318,"o":"m 246 -96 l 246 -96 q 120 40 120 -96 l 120 40 l 120 182 q 104 282 120 253 q 52 310 87 310 l 52 310 q 40 322 40 310 l 40 322 q 52 334 40 334 l 52 334 q 104 363 87 334 q 120 462 120 392 l 120 462 l 120 604 q 246 740 120 740 l 246 740 q 258 728 258 740 l 258 728 q 246 716 258 716 l 246 716 q 178 608 178 716 l 178 608 l 178 466 q 161 368 178 399 q 104 322 143 337 l 104 322 q 161 276 143 307 q 178 178 178 245 l 178 178 l 178 36 q 246 -72 178 -72 l 246 -72 q 258 -84 258 -72 l 258 -84 q 246 -96 258 -96"},"|":{"ha":252,"o":"m 134 -130 l 118 -130 q 110 -122 110 -130 l 110 -122 l 110 782 q 118 790 110 790 l 118 790 l 134 790 q 142 782 142 790 l 142 782 l 142 -122 q 134 -130 142 -130 l 134 -130"},"}":{"ha":318,"o":"m 72 -96 l 72 -96 q 60 -84 60 -96 l 60 -84 q 72 -72 60 -72 l 72 -72 q 140 36 140 -72 l 140 36 l 140 178 q 158 276 140 245 q 214 322 175 307 l 214 322 q 158 368 175 337 q 140 466 140 399 l 140 466 l 140 608 q 72 716 140 716 l 72 716 q 60 728 60 716 l 60 728 q 72 740 60 740 l 72 740 q 198 604 198 740 l 198 604 l 198 462 q 215 363 198 392 q 266 334 231 334 l 266 334 q 278 322 278 334 l 278 322 q 266 310 278 310 l 266 310 q 215 282 231 310 q 198 182 198 253 l 198 182 l 198 40 q 72 -96 198 -96"},"~":{"ha":531,"o":"m 358 301 l 358 301 q 286 317 319 301 q 222 347 252 332 q 158 362 191 362 l 158 362 q 114 350 133 362 q 86 311 95 337 l 86 311 q 72 299 82 299 l 72 299 q 62 314 59 299 l 62 314 q 104 389 72 364 q 172 414 135 414 l 172 414 q 244 399 210 414 q 310 369 278 384 q 372 353 341 353 l 372 353 q 416 366 397 353 q 444 404 435 378 l 444 404 q 458 416 449 416 l 458 416 q 468 401 471 416 l 468 401 q 427 327 458 352 q 358 301 396 301"}}}
